<svg width="1848px" height="1617px" xmlns="http://www.w3.org/2000/svg" xmlns:xlink="http://www.w3.org/1999/xlink">
<g style="">  <path d="M564.048602,826.877140 C566.530572,839.427059,566.854106,851.857535,565.019212,864.168943 C563.184318,876.480351,560.130334,888.652051,555.857168,900.684407 C551.584002,912.716763,546.531411,924.489373,540.699246,936.002589 C534.867080,947.515806,528.954711,957.869753,522.961960,967.064741 C528.720936,977.775030,531.281582,986.287797,530.643976,992.603297 C530.006370,998.918797,531.687756,1007.671649,535.688185,1018.862116 C532.102636,1057.634390,518.521744,1086.616544,494.945101,1105.809447 C471.368458,1125.002350,445.429489,1129.486835,417.127415,1119.263037 C405.534695,1114.869827,394.940663,1108.078197,385.345001,1098.887944 C375.749339,1089.697692,364.876260,1085.344298,352.725437,1085.827632 C351.281747,1070.159716,345.881407,1055.572418,336.524255,1042.065301 C327.167103,1028.558184,319.291144,1022.205395,312.896140,1023.006744 C305.216454,1005.262266,295.857864,986.559292,284.820090,966.897261 C273.782316,947.235229,263.124317,927.233635,252.845772,906.891878 C242.567227,886.550121,233.068324,866.468235,224.348779,846.645618 C215.629233,826.823001,209.308303,807.999195,205.385800,790.173636 C203.864185,781.140812,200.164712,773.647618,194.287270,767.693829 C188.409828,761.740041,183.271422,754.167345,178.871898,744.975514 C169.832760,725.712578,162.911617,704.690621,158.108261,681.909013 C153.304905,659.127405,148.142283,637.625278,142.620239,617.401986 C137.338284,598.057969,130.537184,577.475642,122.216734,555.654389 C113.896284,533.833136,106.035860,512.831450,98.635224,492.648700 C91.234589,472.465950,85.193496,453.801937,80.511763,436.656104 C75.830030,419.510270,74.366881,405.501336,76.122271,394.628883 C78.516846,382.637068,83.429912,372.083576,90.861618,362.968092 C98.293324,353.852607,104.885408,344.257878,110.638070,334.183616 C130.462266,330.660209,148.010089,334.372060,163.282067,345.319281 C178.554044,356.266502,186.551625,368.254981,187.275049,381.285077 C208.860948,387.673767,227.609987,398.379949,243.522727,413.403946 C259.435468,428.427943,273.750033,446.250078,286.466850,466.870886 C299.183667,487.491695,310.282086,509.971276,319.762439,534.310305 C329.242793,558.649334,338.163331,582.668411,346.524321,606.368255 C354.885312,630.068100,362.946071,652.668513,370.706839,674.170173 C378.467608,695.671834,387.146483,713.615590,396.743723,728.001981 C416.552134,672.517196,432.465176,623.529502,444.483327,581.037429 C456.501477,538.545356,469.379227,497.472583,483.116962,457.817878 C496.854697,418.163174,513.109964,377.349178,531.883252,335.374667 C550.656539,293.400156,576.582092,244.749162,609.660687,189.420228 C618.693512,187.898613,626.427580,187.676430,632.863124,188.753673 C639.298669,189.830916,644.954629,190.648576,649.831174,191.206679 C654.707720,191.764782,660.403431,191.862976,666.918479,191.501264 C673.433527,191.139552,681.726479,188.638927,691.797584,183.999314 C697.715566,191.831694,702.093966,197.486076,704.932912,200.962629 C707.771859,204.439182,710.390949,207.975704,712.790259,211.572302 C715.189569,215.168899,718.328580,219.744476,722.207386,225.299168 C726.086192,230.853861,732.223901,238.626102,740.620697,248.616125 C743.978784,250.533679,745.818386,253.810635,746.139556,258.447091 C746.460727,263.083548,746.941687,267.440098,747.582450,271.516874 C748.223213,275.593649,748.783675,278.511266,749.263853,280.269814 C749.744031,282.028361,751.942181,281.428147,755.858371,278.469156 C756.581795,291.499252,755.026765,303.970269,751.193235,315.882581 C747.359706,327.794893,747.803282,340.665000,752.523977,354.493287 C739.503352,386.393537,724.744672,419.712761,708.247493,454.451957 C691.750315,489.191154,675.493469,524.809090,659.476468,561.306833 C643.459467,597.804577,628.961931,635.540372,615.983425,674.515351 C603.004919,713.490330,593.524169,753.163132,587.540888,793.534946 C583.144521,794.735390,580.207422,796.954600,578.729505,800.192643 C577.251588,803.430686,576.053529,806.828474,575.135293,810.386109 C574.217057,813.943744,573.018998,817.341532,571.541081,820.579575 C570.063164,823.817617,567.565696,825.916785,564.048602,826.877140 Z M702.775239,400.673858 C703.888288,380.528492,709.458432,362.000847,719.485839,345.090366 C729.513245,328.179886,741.399584,312.887867,755.145211,299.213851 C768.890839,285.539835,783.715854,273.224666,799.620703,262.267974 C815.525551,251.311282,830.790986,241.474100,845.417465,232.756133 C876.506896,208.204929,910.193890,183.653303,946.479458,159.100520 C982.765026,134.547738,1020.349460,111.293943,1059.233886,89.338440 C1098.118313,67.382937,1139.121593,48.864513,1182.244959,33.782612 C1225.368324,18.700712,1273.030025,11.591613,1325.231491,12.455102 C1330.270200,20.527571,1336.507682,27.800160,1343.944123,34.273089 C1351.380564,40.746017,1359.036708,47.158828,1366.912786,53.511712 C1374.788863,59.864596,1381.945356,66.177634,1388.382479,72.451014 C1394.819602,78.724395,1399.558129,85.697667,1402.598203,93.371040 C1413.551738,98.883613,1422.926652,105.535720,1430.723226,113.327558 C1438.519800,121.119397,1442.700233,132.969142,1443.264649,148.877147 C1436.392625,158.312224,1429.560455,167.027693,1422.767934,175.023815 C1415.975413,183.019937,1408.343485,190.536558,1399.871920,197.573903 C1365.178000,198.543729,1331.485481,204.909145,1298.793354,216.670343 C1266.101226,228.431540,1236.806588,238.792590,1210.908560,247.753803 C1200.834298,242.001141,1190.301866,240.625386,1179.310947,243.626496 C1168.320027,246.627607,1157.369814,251.507236,1146.459976,258.265530 C1135.550139,265.023824,1124.640466,271.782016,1113.730628,278.540310 C1102.820791,285.298604,1091.850307,289.238951,1080.818847,290.361470 C1073.946823,299.796547,1064.436331,307.353708,1052.287087,313.033181 C1040.137843,318.712653,1026.829684,324.472332,1012.362212,330.312389 C1012.683383,334.948846,1014.342920,337.566357,1017.340874,338.165000 C1020.338828,338.763644,1021.558735,341.501197,1021.000633,346.377743 C1027.956896,351.092124,1035.971590,353.627765,1045.044955,353.984742 C1054.118320,354.341718,1063.631179,354.578647,1073.583818,354.695534 C1083.536457,354.812422,1092.569934,355.888859,1100.684523,357.924879 C1108.799111,359.960899,1115.375661,365.015068,1120.414370,373.087537 C1133.603473,369.486204,1145.874156,369.442506,1157.226786,372.956444 C1168.579417,376.470381,1178.533485,381.783326,1187.089288,388.895440 C1195.645092,396.007553,1202.842125,404.199154,1208.680604,413.470489 C1214.519084,422.741823,1218.518663,431.334092,1220.679463,439.247554 C1225.237994,445.561476,1229.155704,447.798589,1232.432709,445.958960 C1235.709714,444.119331,1240.146556,444.797468,1245.743368,447.993391 C1251.502344,458.703680,1261.277926,468.553240,1275.070408,477.542367 C1288.862890,486.531493,1300.757121,497.219773,1310.753458,509.607528 C1318.514226,531.109188,1325.175014,550.312603,1330.736020,567.218348 C1336.297027,584.124093,1337.961299,602.329783,1335.728888,621.835964 C1331.423073,657.970418,1321.101235,691.967778,1304.763063,723.829065 C1288.424892,755.690353,1268.229277,785.533864,1244.175613,813.360495 C1220.121949,841.187127,1193.310033,866.695936,1163.739061,889.887689 C1134.168088,913.079443,1104.876607,933.832612,1075.863737,952.147820 C1072.106554,952.228902,1068.589513,953.189243,1065.312508,955.028872 C1062.035502,956.868501,1060.556029,954.910435,1060.874043,949.154616 C1055.520477,957.230242,1048.907332,963.287659,1041.034411,967.327050 C1033.161491,971.366442,1024.329136,974.486761,1014.537083,976.688102 C1004.745030,978.889442,994.673287,980.930956,984.321552,982.812705 C973.969818,984.694453,964.637812,987.715000,956.325254,991.874435 C948.489718,987.400143,941.373765,982.965668,934.977183,978.570879 C928.580601,974.176090,922.863041,967.942554,917.824332,959.870086 C913.427964,961.070530,910.849415,959.412571,910.088608,954.896159 C909.327800,950.379747,907.188882,948.601745,903.671787,949.562101 C906.546540,939.328832,907.584016,933.612851,906.784246,932.413985 C905.984476,931.215119,904.365478,930.476171,901.927206,930.197120 C899.488933,929.918069,897.210491,929.359185,895.091810,928.520453 C892.973130,927.681720,891.993308,925.823427,892.152315,922.945517 C893.748698,914.950974,892.846800,906.457688,889.446593,897.465404 C886.046387,888.473121,882.586210,879.261158,879.065959,869.829238 C875.545708,860.397318,873.684258,850.985020,873.481553,841.592063 C873.278848,832.199106,877.732804,823.424405,886.843553,815.267697 C917.699209,810.621770,945.755248,801.779945,971.012513,788.741957 C996.269778,775.703969,1019.327724,760.668359,1040.187043,743.634678 C1061.046362,726.600996,1080.566207,708.988416,1098.747165,690.796410 C1116.928122,672.604403,1135.249120,655.791581,1153.710707,640.357440 C1154.187728,631.723711,1156.123945,624.108896,1159.519416,617.512767 C1162.914887,610.916637,1166.650165,604.700215,1170.725362,598.863314 C1174.800559,593.026413,1178.316022,586.870012,1181.271857,580.393927 C1184.227691,573.917841,1185.504463,566.483090,1185.102210,558.089451 C1184.300862,551.694447,1181.741794,548.377740,1177.424929,548.139229 C1173.108065,547.900719,1170.229410,545.143685,1168.788877,539.868043 L1153.200541,539.872779 C1133.853367,534.762458,1112.728481,531.791133,1089.825250,530.958714 C1066.922019,530.126296,1046.916478,527.794146,1029.808028,523.962194 C1021.576553,531.878813,1012.924262,535.658578,1003.850897,535.301601 C994.777532,534.944625,983.286337,535.247888,969.376968,536.211400 C939.001490,542.615875,909.365415,547.401256,880.467855,550.567687 C851.570294,553.734119,822.811902,553.083355,794.191814,548.615376 C791.232823,544.699186,787.954288,541.342728,784.356112,538.545900 C780.757936,535.749073,775.681919,536.190281,769.127908,539.869539 C761.931556,534.275884,754.795334,528.902128,747.719026,523.748110 C740.642718,518.594091,733.826083,512.660662,727.268916,505.947645 C726.146396,494.916185,725.004413,485.543638,723.842931,477.829725 C722.681449,470.115811,718.062965,463.582169,709.987339,458.228603 C710.383278,445.837691,710.500164,435.885202,710.338000,428.370836 C710.175836,420.856470,707.654941,411.624236,702.775239,400.673858 Z M1619.915501,619.351431 C1623.594759,625.905441,1626.714289,632.139766,1629.274184,638.054592 C1631.834080,643.969418,1634.953610,650.203742,1638.632868,656.757753 C1637.516662,666.510843,1636.780082,675.923930,1636.423106,684.997295 C1636.066130,694.070660,1635.649137,702.924074,1635.172116,711.557803 C1634.214918,718.432984,1633.536781,722.869826,1633.137685,724.868462 C1632.738589,726.867098,1632.659087,728.306031,1632.899176,729.185305 C1633.139265,730.064578,1633.659186,731.103632,1634.458956,732.302498 C1635.258726,733.501364,1636.498904,737.178199,1638.179526,743.333114 L1637.225489,760.600484 C1634.509743,767.955843,1630.554650,774.232287,1625.360091,779.430003 C1620.165532,784.627719,1614.851008,789.385727,1609.416360,793.704169 C1608.137990,795.942894,1605.920358,798.201856,1602.763398,800.481121 C1599.606437,802.760387,1597.388805,805.019348,1596.110436,807.258073 L1596.475302,824.165312 L1580.049817,831.484829 C1566.062523,839.083434,1553.793418,844.323191,1543.242136,847.204257 L1527.415292,851.525835 C1514.223032,844.734892,1503.829334,839.541989,1496.233886,835.946970 C1488.638438,832.351951,1480.723517,829.316659,1472.488884,826.841002 C1460.334905,816.932061,1453.038099,809.240112,1450.598248,803.764923 C1448.158397,798.289733,1445.338973,793.154484,1442.139893,788.359021 C1437.260191,777.408643,1433.021315,770.535143,1429.423139,767.738315 L1405.916647,754.315504 L1418.502308,738.123793 L1397.151869,717.026069 C1405.542351,706.231541,1411.895140,698.355582,1416.210426,693.397954 C1420.525711,688.440327,1423.901651,683.503044,1426.338345,678.585958 C1428.775039,673.668872,1431.351221,667.532741,1434.066966,660.177382 C1436.782712,652.822023,1441.055814,640.789847,1446.886401,624.080493 L1454.074825,603.693562 L1473.741494,608.244178 C1477.978854,609.921643,1486.332617,610.238863,1498.803031,609.195847 C1511.273446,608.152832,1522.144947,607.310165,1531.417860,606.667824 C1547.565954,606.982681,1562.534440,606.438543,1576.323765,605.035394 C1590.113090,603.632245,1601.924662,605.367339,1611.758834,610.240727 Z " style="fill: rgba(38, 229, 104, 1.000000); stroke-width: 0.000000px; stroke: rgba(0, 0, 0, 1.000000); " fill="#1be67b" stroke="#000000" stroke-width="0.000000" />
</g></svg>