<svg width="5649px" height="1617px" xmlns="http://www.w3.org/2000/svg" xmlns:xlink="http://www.w3.org/1999/xlink">
<g style="">  <path d="M1435.085740,168.300000 C1468.019238,168.300000,1499.002261,172.849955,1528.035740,181.950000 C1557.069218,191.050046,1583.068958,203.616587,1606.035740,219.650000 C1629.002521,235.683414,1648.502326,254.749890,1664.535740,276.850000 C1680.569153,298.950111,1692.485701,322.566541,1700.285740,347.700000 C1709.819121,381.500169,1708.302469,409.233225,1695.735740,430.900000 C1683.169010,452.566775,1666.269179,467.299961,1645.035740,475.100000 C1623.802300,482.900039,1601.485857,482.683375,1578.085740,474.450000 C1554.685623,466.216626,1537.352463,449.100130,1526.085740,423.100000 C1514.819017,400.566554,1501.819147,382.800065,1487.085740,369.800000 C1472.352333,356.799935,1455.019173,349.433342,1435.085740,347.700000 C1427.285701,346.833329,1417.969127,347.916652,1407.135740,350.950000 C1396.302352,353.983349,1385.902456,358.749968,1375.935740,365.250000 C1365.969023,371.750033,1357.302443,380.416613,1349.935740,391.250000 C1342.569036,402.083388,1338.885740,414.433264,1338.885740,428.300000 C1338.885740,452.566788,1347.335655,478.349863,1364.235740,505.650000 C1381.135824,532.950137,1402.152281,560.033199,1427.285740,586.900000 L1442.885740,603.800000 C1462.819173,626.333446,1482.752307,649.299883,1502.685740,672.700000 C1522.619173,696.100117,1540.818991,720.799870,1557.285740,746.800000 C1573.752489,772.800130,1586.969023,800.533186,1596.935740,830.000000 C1606.902456,859.466814,1611.885740,891.099831,1611.885740,924.900000 C1611.885740,975.166918,1601.052515,1022.399779,1579.385740,1066.600000 C1557.718965,1110.800221,1528.469257,1149.366502,1491.635740,1182.300000 C1454.802222,1215.233498,1412.552645,1241.233238,1364.885740,1260.300000 C1317.218835,1279.366762,1267.386000,1288.900000,1215.385740,1288.900000 C1165.985493,1288.900000,1118.535967,1280.883414,1073.035740,1264.850000 C1027.535512,1248.816587,987.669244,1225.850150,953.435740,1195.950000 C919.202235,1166.049851,891.902508,1130.300208,871.535740,1088.700000 C851.168971,1047.099792,841.852398,1000.300260,843.585740,948.300000 C843.585740,924.033212,849.002352,903.450085,859.835740,886.550000 C870.669127,869.649916,884.102326,857.083375,900.135740,848.850000 C916.169153,840.616626,933.502313,836.716665,952.135740,837.150000 C970.769166,837.583336,987.668997,842.566619,1002.835740,852.100000 C1018.002482,861.633381,1029.919030,875.716574,1038.585740,894.350000 C1047.252450,912.983427,1050.285753,936.166528,1047.685740,963.900000 C1047.685740,987.300117,1051.802365,1008.099909,1060.035740,1026.300000 C1068.269114,1044.500091,1079.968997,1059.883271,1095.135740,1072.450000 C1110.302482,1085.016730,1128.068971,1094.766632,1148.435740,1101.700000 C1168.802508,1108.633368,1190.685623,1112.100000,1214.085740,1112.100000 C1234.885844,1112.100000,1255.902300,1108.200039,1277.135740,1100.400000 C1298.369179,1092.599961,1317.435655,1081.550072,1334.335740,1067.250000 C1351.235824,1052.949929,1364.885688,1035.183440,1375.285740,1013.950000 C1385.685792,992.716561,1390.885740,969.100130,1390.885740,943.100000 C1390.885740,904.099805,1379.185857,867.700169,1355.785740,833.900000 C1332.385623,800.099831,1304.652567,765.433511,1272.585740,729.900000 C1254.385649,709.099896,1236.185831,687.866775,1217.985740,666.200000 C1199.785649,644.533225,1183.535811,622.216782,1169.235740,599.250000 C1154.935668,576.283219,1143.235785,552.450124,1134.135740,527.750000 C1125.035694,503.049877,1120.485740,476.400143,1120.485740,447.800000 C1120.485740,435.666606,1121.569062,423.316730,1123.735740,410.750000 C1125.902417,398.183270,1129.152385,385.400065,1133.485740,372.400000 C1143.885792,339.466502,1159.485636,310.433459,1180.285740,285.300000 C1201.085844,260.166541,1224.918939,238.933420,1251.785740,221.600000 C1278.652541,204.266580,1307.902248,191.050046,1339.535740,181.950000 C1371.169231,172.849955,1403.018913,168.300000,1435.085740,168.300000 ZM2382.785740,911.900000 C2388.852437,892.833238,2397.952346,877.666723,2410.085740,866.400000 C2422.219134,855.133277,2435.002339,847.550020,2448.435740,843.650000 C2461.869140,839.749981,2475.519004,839.316652,2489.385740,842.350000 C2503.252476,845.383349,2515.169023,851.016626,2525.135740,859.250000 C2535.102456,867.483375,2541.819056,878.533264,2545.285740,892.400000 C2548.752424,906.266736,2547.452437,922.299909,2541.385740,940.500000 C2519.718965,1002.033641,2491.985909,1055.116444,2458.185740,1099.750000 C2424.385571,1144.383557,2385.169296,1180.999857,2340.535740,1209.600000 C2295.902183,1238.200143,2246.286013,1259.433264,2191.685740,1273.300000 C2137.085467,1287.166736,2078.152723,1294.100000,2014.885740,1294.100000 C1999.285662,1294.100000,1983.035824,1293.666671,1966.135740,1292.800000 C1949.235655,1291.933329,1932.552489,1290.633342,1916.085740,1288.900000 C1890.085610,1288.900000,1866.685844,1285.000039,1845.885740,1277.200000 C1825.085636,1269.399961,1806.019160,1259.000065,1788.685740,1246.000000 C1780.885701,1267.666775,1772.652450,1291.283206,1763.985740,1316.850000 C1755.319030,1342.416795,1746.435785,1368.633199,1737.335740,1395.500000 C1728.235694,1422.366801,1719.135785,1448.583206,1710.035740,1474.150000 C1700.935694,1499.716795,1692.485779,1523.333225,1684.685740,1545.000000 C1678.619043,1564.066762,1668.652476,1579.233277,1654.785740,1590.500000 C1640.919004,1601.766723,1625.752489,1609.349981,1609.285740,1613.250000 C1592.818991,1617.150020,1576.352489,1617.150020,1559.885740,1613.250000 C1543.418991,1609.349981,1529.335798,1602.200052,1517.635740,1591.800000 C1505.935681,1581.399948,1498.135759,1567.750085,1494.235740,1550.850000 C1490.335720,1533.949916,1492.719030,1513.800117,1501.385740,1490.400000 L1825.085740,575.200000 C1830.285766,556.133238,1838.735681,540.750059,1850.435740,529.050000 C1862.135798,517.349942,1875.135668,509.116691,1889.435740,504.350000 C1903.735811,499.583310,1918.685662,497.416665,1934.285740,497.850000 C1949.885818,498.283336,1963.752346,501.099974,1975.885740,506.300000 C1988.019134,511.500026,1997.985701,518.216625,2005.785740,526.450000 C2013.585779,534.683375,2017.052411,543.566619,2016.185740,553.100000 C2030.919147,540.966606,2047.818978,533.166684,2066.885740,529.700000 C2085.952502,526.233316,2104.152320,524.500000,2121.485740,524.500000 C2146.619199,524.500000,2170.668958,529.699948,2193.635740,540.100000 C2216.602521,550.500052,2236.752320,564.366580,2254.085740,581.700000 C2271.419160,599.033420,2285.069023,619.616548,2295.035740,643.450000 C2305.002456,667.283453,2309.985740,692.199870,2309.985740,718.200000 C2309.985740,741.600117,2306.085779,764.133225,2298.285740,785.800000 C2280.085649,836.066918,2261.669166,887.416404,2243.035740,939.850000 C2224.402313,992.283596,2205.985831,1043.199753,2187.785740,1092.600000 C2186.052398,1096.933355,2184.535746,1100.833316,2183.235740,1104.300000 C2181.935733,1107.766684,2179.552424,1112.966632,2176.085740,1119.900000 C2221.152632,1103.433251,2261.668893,1078.083505,2297.635740,1043.850000 C2333.602586,1009.616496,2361.985636,965.633602,2382.785740,911.900000 ZM1865.385740,1028.900000 C1856.719030,1056.633472,1858.452346,1077.649929,1870.585740,1091.950000 C1882.719134,1106.250072,1899.185636,1113.400000,1919.985740,1113.400000 C1937.319160,1112.533329,1954.002326,1106.683388,1970.035740,1095.850000 C1986.069153,1085.016613,1997.552372,1069.633433,2004.485740,1049.700000 C2013.152450,1024.566541,2021.169036,1002.033433,2028.535740,982.100000 C2035.902443,962.166567,2042.835707,942.666762,2049.335740,923.600000 C2055.835772,904.533238,2062.552372,885.033433,2069.485740,865.100000 C2076.419108,845.166567,2083.785701,822.200130,2091.585740,796.200000 C2100.252450,771.066541,2100.685779,750.050085,2092.885740,733.150000 C2085.085701,716.249916,2071.219173,706.933342,2051.285740,705.200000 C2033.085649,704.333329,2014.885831,709.966606,1996.685740,722.100000 C1978.485649,734.233394,1963.752463,751.566554,1952.485740,774.100000 L1955.085740,772.800000 ZM2517.985740,1074.400000 C2516.252398,1078.733355,2514.952411,1082.849981,2514.085740,1086.750000 C2513.219069,1090.650020,2512.785740,1093.899987,2512.785740,1096.500000 C2512.785740,1106.033381,2516.252372,1114.266632,2523.185740,1121.200000 C2530.119108,1128.133368,2540.085675,1131.600000,2553.085740,1131.600000 C2583.419225,1131.600000,2616.135564,1114.266840,2651.235740,1079.600000 C2686.335915,1044.933160,2718.618926,988.167061,2748.085740,909.300000 C2759.352463,879.833186,2775.385636,860.333381,2796.185740,850.800000 C2816.985844,841.266619,2836.918978,839.099974,2855.985740,844.300000 C2875.052502,849.500026,2890.219017,860.766580,2901.485740,878.100000 C2912.752463,895.433420,2914.485779,915.799883,2906.685740,939.200000 C2884.152294,1006.800338,2857.935889,1062.916444,2828.035740,1107.550000 C2798.135590,1152.183557,2766.935902,1187.716535,2734.435740,1214.150000 C2701.935577,1240.583466,2668.785909,1259.216613,2634.985740,1270.050000 C2601.185571,1280.883388,2568.685896,1286.300000,2537.485740,1286.300000 C2508.885597,1286.300000,2481.585870,1282.183375,2455.585740,1273.950000 C2429.585610,1265.716626,2406.835837,1253.800078,2387.335740,1238.200000 C2367.835642,1222.599922,2352.452463,1203.316782,2341.185740,1180.350000 C2329.919017,1157.383219,2324.285740,1130.733485,2324.285740,1100.400000 C2324.285740,1074.399870,2329.485688,1046.233485,2339.885740,1015.900000 L2594.685740,276.200000 C2602.485779,252.799883,2613.535668,234.383401,2627.835740,220.950000 C2642.135811,207.516599,2657.518991,198.416691,2673.985740,193.650000 C2690.452489,188.883310,2706.918991,188.233316,2723.385740,191.700000 C2739.852489,195.166684,2753.719017,202.316613,2764.985740,213.150000 C2776.252463,223.983388,2783.835720,238.066580,2787.735740,255.400000 C2791.635759,272.733420,2789.252450,293.099883,2780.585740,316.500000 ZM3052.285740,403.600000 C3022.818926,403.600000,2997.685844,393.200104,2976.885740,372.400000 C2956.085636,351.599896,2945.685740,326.033485,2945.685740,295.700000 C2945.685740,266.233186,2956.085636,241.316769,2976.885740,220.950000 C2997.685844,200.583232,3022.818926,190.400000,3052.285740,190.400000 C3081.752554,190.400000,3106.885636,200.583232,3127.685740,220.950000 C3148.485844,241.316769,3158.885740,266.233186,3158.885740,295.700000 C3158.885740,326.033485,3148.485844,351.599896,3127.685740,372.400000 C3106.885636,393.200104,3081.752554,403.600000,3052.285740,403.600000 ZM2876.785740,1066.600000 C2874.185727,1074.400039,2872.885740,1081.333303,2872.885740,1087.400000 C2872.885740,1099.533394,2877.435694,1109.933290,2886.535740,1118.600000 C2895.635785,1127.266710,2907.552333,1131.600000,2922.285740,1131.600000 C2935.285805,1131.600000,2949.152333,1127.916704,2963.885740,1120.550000 C2978.619147,1113.183297,2993.785662,1100.833420,3009.385740,1083.500000 C3024.985818,1066.166580,3040.802326,1043.416808,3056.835740,1015.250000 C3072.869153,987.083193,3088.685662,951.766879,3104.285740,909.300000 C3112.952450,885.033212,3127.685636,868.566710,3148.485740,859.900000 C3169.285844,851.233290,3189.652307,848.849981,3209.585740,852.750000 C3229.519173,856.650020,3245.552346,866.183258,3257.685740,881.350000 C3269.819134,896.516743,3271.985779,915.799883,3264.185740,939.200000 C3241.652294,1006.800338,3216.085883,1062.699779,3187.485740,1106.900000 C3158.885597,1151.100221,3128.985896,1186.633199,3097.785740,1213.500000 C3066.585584,1240.366801,3034.735902,1259.216613,3002.235740,1270.050000 C2969.735577,1280.883388,2937.452567,1286.300000,2905.385740,1286.300000 C2875.052255,1286.300000,2846.669205,1281.966710,2820.235740,1273.300000 C2793.802274,1264.633290,2770.402508,1252.066749,2750.035740,1235.600000 C2729.668971,1219.133251,2713.635798,1198.983453,2701.935740,1175.150000 C2690.235681,1151.316548,2684.385740,1124.233485,2684.385740,1093.900000 C2684.385740,1082.633277,2685.902391,1069.200078,2688.935740,1053.600000 C2691.969088,1037.999922,2695.652385,1023.700065,2699.985740,1010.700000 C2710.385792,980.366515,2721.435681,948.300169,2733.135740,914.500000 C2744.835798,880.699831,2756.752346,846.683505,2768.885740,812.450000 C2781.019134,778.216496,2792.935681,743.983505,2804.635740,709.750000 C2816.335798,675.516496,2827.385688,643.233485,2837.785740,612.900000 C2849.919134,577.366489,2868.335616,552.666736,2893.035740,538.800000 C2917.735863,524.933264,2941.352294,520.599974,2963.885740,525.800000 C2986.419186,531.000026,3004.185675,545.083219,3017.185740,568.050000 C3030.185805,591.016782,3031.052463,621.133147,3019.785740,658.400000 ZM3525.485740,919.700000 C3535.019121,894.566541,3550.185636,877.666710,3570.985740,869.000000 C3591.785844,860.333290,3611.718978,858.166645,3630.785740,862.500000 C3649.852502,866.833355,3665.235681,876.583258,3676.935740,891.750000 C3688.635798,906.916743,3690.585779,926.199883,3682.785740,949.600000 C3645.518887,1057.067204,3593.952736,1140.049708,3528.085740,1198.550000 C3462.218744,1257.050293,3387.252827,1286.300000,3303.185740,1286.300000 C3269.385571,1286.300000,3237.319225,1281.533381,3206.985740,1272.000000 C3176.652255,1262.466619,3150.002521,1248.600091,3127.035740,1230.400000 C3104.068958,1212.199909,3085.652476,1190.100130,3071.785740,1164.100000 C3057.919004,1138.099870,3050.985740,1108.633498,3050.985740,1075.700000 C3050.985740,1048.833199,3056.185688,1019.800156,3066.585740,988.600000 L3066.585740,989.900000 C3076.119121,962.166528,3085.219030,936.383452,3093.885740,912.550000 C3102.552450,888.716547,3111.002365,865.100117,3119.235740,841.700000 C3127.469114,818.299883,3135.919030,794.683453,3144.585740,770.850000 C3153.252450,747.016548,3162.352359,721.233472,3171.885740,693.500000 L3128.985740,693.500000 C3109.918978,693.500000,3095.185792,685.483414,3084.785740,669.450000 C3074.385688,653.416587,3070.269062,635.650098,3072.435740,616.150000 C3074.602417,596.649903,3083.485662,578.883414,3099.085740,562.850000 C3114.685818,546.816587,3138.952242,538.800000,3171.885740,538.800000 L3226.485740,538.800000 L3325.285740,264.500000 C3335.685792,231.566502,3352.802287,209.900052,3376.635740,199.500000 C3400.469192,189.099948,3423.652294,186.716639,3446.185740,192.350000 C3468.719186,197.983362,3487.135668,210.116574,3501.435740,228.750000 C3515.735811,247.383427,3518.985779,269.266541,3511.185740,294.400000 L3425.385740,538.800000 L3483.885740,538.800000 C3511.619212,538.800000,3531.119017,546.816587,3542.385740,562.850000 C3553.652463,578.883414,3557.769088,596.649903,3554.735740,616.150000 C3551.702391,635.650098,3541.519160,653.416587,3524.185740,669.450000 C3506.852320,685.483414,3483.452554,693.500000,3453.985740,693.500000 L3369.485740,693.500000 L3245.985740,1039.300000 C3242.519056,1047.100039,3240.785740,1056.633277,3240.785740,1067.900000 C3240.785740,1085.233420,3247.502339,1099.966606,3260.935740,1112.100000 C3274.369140,1124.233394,3292.785623,1130.300000,3316.185740,1130.300000 C3354.319264,1130.300000,3392.235551,1113.183505,3429.935740,1078.950000 C3467.635928,1044.716496,3499.485610,991.633693,3525.485740,919.700000 ZM4176.785740,918.400000 C4185.452450,894.133212,4199.752307,878.533368,4219.685740,871.600000 C4239.619173,864.666632,4259.335642,863.799974,4278.835740,869.000000 C4298.335837,874.200026,4314.152346,883.949928,4326.285740,898.250000 C4338.419134,912.550072,4341.452437,928.799909,4335.385740,947.000000 C4314.585636,1006.800299,4288.369231,1057.933121,4256.735740,1100.400000 C4225.102248,1142.866879,4187.402625,1177.966528,4143.635740,1205.700000 C4099.868854,1233.433472,4050.252684,1254.233264,3994.785740,1268.100000 C3939.318796,1281.966736,3877.352749,1290.633316,3808.885740,1294.100000 C3798.485688,1295.833342,3785.919147,1297.133329,3771.185740,1298.000000 C3756.452333,1298.866671,3743.885792,1299.300000,3733.485740,1299.300000 C3696.218887,1297.566658,3660.902573,1290.633394,3627.535740,1278.500000 C3594.168906,1266.366606,3564.919199,1250.116769,3539.785740,1229.750000 C3514.652281,1209.383232,3494.719147,1185.550137,3479.985740,1158.250000 C3465.252333,1130.949864,3457.885740,1101.266827,3457.885740,1069.200000 C3457.885740,1048.399896,3460.485714,1027.166775,3465.685740,1005.500000 C3470.885766,983.833225,3478.902352,963.466762,3489.735740,944.400000 C3500.569127,925.333238,3514.218991,908.650072,3530.685740,894.350000 C3547.152489,880.049929,3566.218965,870.300026,3587.885740,865.100000 C3613.885870,815.699753,3640.318939,766.300247,3667.185740,716.900000 C3694.052541,667.499753,3720.052281,618.100247,3745.185740,568.700000 C3759.919147,547.033225,3775.085662,530.566723,3790.685740,519.300000 C3806.285818,508.033277,3821.452333,500.666684,3836.185740,497.200000 C3843.985779,495.466658,3852.002365,494.166671,3860.235740,493.300000 C3868.469114,492.433329,3877.352359,492.866658,3886.885740,494.600000 L3886.885740,493.300000 C3900.752476,495.900013,3913.752346,501.099961,3925.885740,508.900000 C3938.019134,516.700039,3947.985701,526.016612,3955.785740,536.850000 C3963.585779,547.683388,3969.219056,560.033264,3972.685740,573.900000 C3976.152424,587.766736,3977.019082,601.633264,3975.285740,615.500000 C3971.819056,633.700091,3964.669127,650.166593,3953.835740,664.900000 C3943.002352,679.633407,3928.919160,690.466632,3911.585740,697.400000 C3914.185753,717.333433,3921.119017,738.133225,3932.385740,759.800000 C3943.652463,781.466775,3955.785675,803.566554,3968.785740,826.100000 C3986.985831,856.433485,4004.318991,889.149825,4020.785740,924.250000 C4037.252489,959.350176,4045.485740,995.966476,4045.485740,1034.100000 C4045.485740,1042.766710,4045.052411,1050.999961,4044.185740,1058.800000 C4043.319069,1066.600039,4042.019082,1074.833290,4040.285740,1083.500000 C4100.952710,1047.966489,4146.452255,992.933706,4176.785740,918.400000 ZM3764.685740,883.300000 C3782.885831,901.500091,3793.285727,923.816535,3795.885740,950.250000 C3798.485753,976.683466,3794.369127,1001.383219,3783.535740,1024.350000 C3772.702352,1047.316781,3755.585857,1065.733264,3732.185740,1079.600000 C3708.785623,1093.466736,3680.619238,1096.933368,3647.685740,1090.000000 C3654.619108,1107.333420,3666.968984,1120.549955,3684.735740,1129.650000 C3702.502495,1138.750046,3722.652294,1143.300000,3745.185740,1143.300000 C3767.719186,1142.433329,3787.435655,1136.150059,3804.335740,1124.450000 C3821.235824,1112.749942,3833.152372,1095.200117,3840.085740,1071.800000 C3850.485792,1035.399818,3848.535811,998.133524,3834.235740,960.000000 C3819.935668,921.866476,3800.652528,888.066814,3776.385740,858.600000 ZM4296.385740,1073.100000 C4325.852554,1073.100000,4350.985636,1083.283232,4371.785740,1103.650000 C4392.585844,1124.016769,4402.985740,1149.366515,4402.985740,1179.700000 C4402.985740,1209.166814,4392.585844,1234.299896,4371.785740,1255.100000 C4350.985636,1275.900104,4325.852554,1286.300000,4296.385740,1286.300000 C4266.052255,1286.300000,4240.702508,1275.900104,4220.335740,1255.100000 C4199.968971,1234.299896,4189.785740,1209.166814,4189.785740,1179.700000 C4189.785740,1149.366515,4199.968971,1124.016769,4220.335740,1103.650000 C4240.702508,1083.283232,4266.052255,1073.100000,4296.385740,1073.100000 ZM4746.185740,403.600000 C4716.718926,403.600000,4691.585844,393.200104,4670.785740,372.400000 C4649.985636,351.599896,4639.585740,326.033485,4639.585740,295.700000 C4639.585740,266.233186,4649.985636,241.316769,4670.785740,220.950000 C4691.585844,200.583232,4716.718926,190.400000,4746.185740,190.400000 C4775.652554,190.400000,4800.785636,200.583232,4821.585740,220.950000 C4842.385844,241.316769,4852.785740,266.233186,4852.785740,295.700000 C4852.785740,326.033485,4842.385844,351.599896,4821.585740,372.400000 C4800.785636,393.200104,4775.652554,403.600000,4746.185740,403.600000 ZM4570.685740,1066.600000 C4568.085727,1074.400039,4566.785740,1081.333303,4566.785740,1087.400000 C4566.785740,1099.533394,4571.335694,1109.933290,4580.435740,1118.600000 C4589.535785,1127.266710,4601.452333,1131.600000,4616.185740,1131.600000 C4629.185805,1131.600000,4643.052333,1127.916704,4657.785740,1120.550000 C4672.519147,1113.183297,4687.685662,1100.833420,4703.285740,1083.500000 C4718.885818,1066.166580,4734.702326,1043.416808,4750.735740,1015.250000 C4766.769153,987.083193,4782.585662,951.766879,4798.185740,909.300000 C4806.852450,885.033212,4821.585636,868.566710,4842.385740,859.900000 C4863.185844,851.233290,4883.552307,848.849981,4903.485740,852.750000 C4923.419173,856.650020,4939.452346,866.183258,4951.585740,881.350000 C4963.719134,896.516743,4965.885779,915.799883,4958.085740,939.200000 C4935.552294,1006.800338,4909.985883,1062.699779,4881.385740,1106.900000 C4852.785597,1151.100221,4822.885896,1186.633199,4791.685740,1213.500000 C4760.485584,1240.366801,4728.635902,1259.216613,4696.135740,1270.050000 C4663.635577,1280.883388,4631.352567,1286.300000,4599.285740,1286.300000 C4568.952255,1286.300000,4540.569205,1281.966710,4514.135740,1273.300000 C4487.702274,1264.633290,4464.302508,1252.066749,4443.935740,1235.600000 C4423.568971,1219.133251,4407.535798,1198.983453,4395.835740,1175.150000 C4384.135681,1151.316548,4378.285740,1124.233485,4378.285740,1093.900000 C4378.285740,1082.633277,4379.802391,1069.200078,4382.835740,1053.600000 C4385.869088,1037.999922,4389.552385,1023.700065,4393.885740,1010.700000 C4404.285792,980.366515,4415.335681,948.300169,4427.035740,914.500000 C4438.735798,880.699831,4450.652346,846.683505,4462.785740,812.450000 C4474.919134,778.216496,4486.835681,743.983505,4498.535740,709.750000 C4510.235798,675.516496,4521.285688,643.233485,4531.685740,612.900000 C4543.819134,577.366489,4562.235616,552.666736,4586.935740,538.800000 C4611.635863,524.933264,4635.252294,520.599974,4657.785740,525.800000 C4680.319186,531.000026,4698.085675,545.083219,4711.085740,568.050000 C4724.085805,591.016782,4724.952463,621.133147,4713.685740,658.400000 ZM5305.185740,1014.600000 C5307.785753,1015.466671,5310.819056,1015.900000,5314.285740,1015.900000 C5317.752424,1015.900000,5320.785727,1015.900000,5323.385740,1015.900000 C5362.385935,1015.900000,5395.968932,1003.333459,5424.135740,978.200000 C5452.302547,953.066541,5473.752333,920.133537,5488.485740,879.400000 C5497.152450,850.799857,5511.885636,831.300052,5532.685740,820.900000 C5553.485844,810.499948,5573.635642,807.683310,5593.135740,812.450000 C5612.635837,817.216691,5628.019017,829.349903,5639.285740,848.850000 C5650.552463,868.350097,5650.985792,893.699844,5640.585740,924.900000 C5629.319017,958.700169,5613.719173,990.549851,5593.785740,1020.450000 C5573.852307,1050.350150,5550.019212,1076.349890,5522.285740,1098.450000 C5494.552268,1120.550111,5463.785909,1138.099935,5429.985740,1151.100000 C5396.185571,1164.100065,5360.219264,1170.600000,5322.085740,1170.600000 C5295.218939,1170.600000,5269.219199,1167.133368,5244.085740,1160.200000 C5216.352268,1207.000234,5180.819290,1240.799896,5137.485740,1261.600000 C5094.152190,1282.400104,5046.919329,1292.800000,4995.785740,1292.800000 C4962.852242,1292.800000,4931.219225,1287.816717,4900.885740,1277.850000 C4870.552255,1267.883284,4843.685857,1253.583427,4820.285740,1234.950000 C4796.885623,1216.316574,4778.252476,1193.350137,4764.385740,1166.050000 C4750.519004,1138.749864,4743.585740,1108.200169,4743.585740,1074.400000 C4743.585740,1059.666593,4745.102391,1044.500078,4748.135740,1028.900000 C4751.169088,1013.299922,4755.285714,997.266749,4760.485740,980.800000 L4865.785740,690.900000 C4876.185792,662.299857,4890.918978,636.516782,4909.985740,613.550000 C4929.052502,590.583219,4950.935616,571.300078,4975.635740,555.700000 C5000.335863,540.099922,5027.202261,528.183375,5056.235740,519.950000 C5085.269218,511.716625,5114.952255,507.600000,5145.285740,507.600000 C5179.952580,507.600000,5213.102248,512.799948,5244.735740,523.200000 C5276.369231,533.600052,5303.668958,548.549903,5326.635740,568.050000 C5349.602521,587.550098,5367.369010,610.949864,5379.935740,638.250000 C5392.502469,665.550137,5397.485753,695.666502,5394.885740,728.600000 C5394.019069,741.600065,5390.985766,758.499896,5385.785740,779.300000 C5380.585714,800.100104,5374.519108,821.116561,5367.585740,842.350000 C5360.652372,863.583440,5353.285779,883.516574,5345.485740,902.150000 C5337.685701,920.783427,5331.185766,933.999961,5325.985740,941.800000 C5317.319030,954.800065,5308.652450,964.333303,5299.985740,970.400000 C5302.585753,982.533394,5304.102404,993.149955,5304.535740,1002.250000 C5304.969075,1011.350046,5305.185740,1015.466671,5305.185740,1014.600000 ZM5184.285740,814.400000 C5188.619095,800.533264,5193.819043,784.283427,5199.885740,765.650000 C5205.952437,747.016574,5208.985740,731.633394,5208.985740,719.500000 C5208.985740,704.766593,5202.919134,691.550059,5190.785740,679.850000 C5178.652346,668.149942,5162.619173,662.300000,5142.685740,662.300000 C5122.752307,662.300000,5104.335824,668.149942,5087.435740,679.850000 C5070.535655,691.550059,5058.619108,708.233225,5051.685740,729.900000 C5023.085597,797.500338,5000.119160,854.483102,4982.785740,900.850000 C4965.452320,947.216899,4952.019121,985.133186,4942.485740,1014.600000 C4939.885727,1022.400039,4937.069088,1033.016600,4934.035740,1046.450000 C4931.002391,1059.883401,4930.352398,1073.533264,4932.085740,1087.400000 C4933.819082,1101.266736,4939.019030,1113.183284,4947.685740,1123.150000 C4956.352450,1133.116717,4971.518965,1138.100000,4993.185740,1138.100000 C5012.252502,1138.100000,5030.452320,1131.816730,5047.785740,1119.250000 C5065.119160,1106.683271,5078.119030,1089.133446,5086.785740,1066.600000 C5086.785740,1065.733329,5087.219069,1064.866671,5088.085740,1064.000000 C5075.952346,1053.599948,5065.119121,1041.900065,5055.585740,1028.900000 C5046.052359,1015.899935,5040.852411,998.133446,5039.985740,975.600000 C5039.985740,956.533238,5043.669036,938.550085,5051.035740,921.650000 C5058.402443,904.749916,5068.369010,890.450059,5080.935740,878.750000 C5093.502469,867.049942,5107.802326,858.383362,5123.835740,852.750000 C5139.869153,847.116639,5156.985649,845.166658,5175.185740,846.900000 C5176.052411,841.699974,5177.352398,836.500026,5179.085740,831.300000 C5180.819082,826.099974,5182.552398,820.466697,5184.285740,814.400000 Z" style="fill: rgba(255, 255, 255, 1.000000); stroke-width: 0.000000px; stroke: rgba(255, 255, 255, 1.000000); " fill="#ffffff" stroke="#ffffff" stroke-width="0.000000" />
</g></svg>