<svg width="4806px" height="1449px" xmlns="http://www.w3.org/2000/svg" xmlns:xlink="http://www.w3.org/1999/xlink">
<g style="">  <path d="M592.085740,0.300000 C625.019238,0.300000,656.002261,4.849955,685.035740,13.950000 C714.069218,23.050046,740.068958,35.616587,763.035740,51.650000 C786.002521,67.683414,805.502326,86.749890,821.535740,108.850000 C837.569153,130.950111,849.485701,154.566541,857.285740,179.700000 C866.819121,213.500169,865.302469,241.233225,852.735740,262.900000 C840.169010,284.566775,823.269179,299.299961,802.035740,307.100000 C780.802300,314.900039,758.485857,314.683375,735.085740,306.450000 C711.685623,298.216626,694.352463,281.100130,683.085740,255.100000 C671.819017,232.566554,658.819147,214.800065,644.085740,201.800000 C629.352333,188.799935,612.019173,181.433342,592.085740,179.700000 C584.285701,178.833329,574.969127,179.916652,564.135740,182.950000 C553.302352,185.983349,542.902456,190.749968,532.935740,197.250000 C522.969023,203.750033,514.302443,212.416613,506.935740,223.250000 C499.569036,234.083388,495.885740,246.433264,495.885740,260.300000 C495.885740,284.566788,504.335655,310.349863,521.235740,337.650000 C538.135824,364.950137,559.152281,392.033199,584.285740,418.900000 L599.885740,435.800000 C619.819173,458.333446,639.752307,481.299883,659.685740,504.700000 C679.619173,528.100117,697.818991,552.799870,714.285740,578.800000 C730.752489,604.800130,743.969023,632.533186,753.935740,662.000000 C763.902456,691.466814,768.885740,723.099831,768.885740,756.900000 C768.885740,807.166918,758.052515,854.399779,736.385740,898.600000 C714.718965,942.800221,685.469257,981.366502,648.635740,1014.300000 C611.802222,1047.233498,569.552645,1073.233238,521.885740,1092.300000 C474.218835,1111.366762,424.386000,1120.900000,372.385740,1120.900000 C322.985493,1120.900000,275.535967,1112.883414,230.035740,1096.850000 C184.535512,1080.816587,144.669244,1057.850150,110.435740,1027.950000 C76.202235,998.049851,48.902508,962.300208,28.535740,920.700000 C8.168971,879.099792,-1.147602,832.300260,0.585740,780.300000 C0.585740,756.033212,6.002352,735.450085,16.835740,718.550000 C27.669127,701.649916,41.102326,689.083375,57.135740,680.850000 C73.169153,672.616626,90.502313,668.716665,109.135740,669.150000 C127.769166,669.583336,144.668997,674.566619,159.835740,684.100000 C175.002482,693.633381,186.919030,707.716574,195.585740,726.350000 C204.252450,744.983427,207.285753,768.166528,204.685740,795.900000 C204.685740,819.300117,208.802365,840.099909,217.035740,858.300000 C225.269114,876.500091,236.968997,891.883271,252.135740,904.450000 C267.302482,917.016730,285.068971,926.766632,305.435740,933.700000 C325.802508,940.633368,347.685623,944.100000,371.085740,944.100000 C391.885844,944.100000,412.902300,940.200039,434.135740,932.400000 C455.369179,924.599961,474.435655,913.550072,491.335740,899.250000 C508.235824,884.949929,521.885688,867.183440,532.285740,845.950000 C542.685792,824.716561,547.885740,801.100130,547.885740,775.100000 C547.885740,736.099805,536.185857,699.700169,512.785740,665.900000 C489.385623,632.099831,461.652567,597.433511,429.585740,561.900000 C411.385649,541.099896,393.185831,519.866775,374.985740,498.200000 C356.785649,476.533225,340.535811,454.216782,326.235740,431.250000 C311.935668,408.283219,300.235785,384.450124,291.135740,359.750000 C282.035694,335.049877,277.485740,308.400143,277.485740,279.800000 C277.485740,267.666606,278.569062,255.316730,280.735740,242.750000 C282.902417,230.183270,286.152385,217.400065,290.485740,204.400000 C300.885792,171.466502,316.485636,142.433459,337.285740,117.300000 C358.085844,92.166541,381.918939,70.933420,408.785740,53.600000 C435.652541,36.266580,464.902248,23.050046,496.535740,13.950000 C528.169231,4.849955,560.018913,0.300000,592.085740,0.300000 ZM1539.785740,743.900000 C1545.852437,724.833238,1554.952346,709.666723,1567.085740,698.400000 C1579.219134,687.133277,1592.002339,679.550020,1605.435740,675.650000 C1618.869140,671.749981,1632.519004,671.316652,1646.385740,674.350000 C1660.252476,677.383349,1672.169023,683.016626,1682.135740,691.250000 C1692.102456,699.483375,1698.819056,710.533264,1702.285740,724.400000 C1705.752424,738.266736,1704.452437,754.299909,1698.385740,772.500000 C1676.718965,834.033641,1648.985909,887.116444,1615.185740,931.750000 C1581.385571,976.383557,1542.169296,1012.999857,1497.535740,1041.600000 C1452.902183,1070.200143,1403.286013,1091.433264,1348.685740,1105.300000 C1294.085467,1119.166736,1235.152723,1126.100000,1171.885740,1126.100000 C1156.285662,1126.100000,1140.035824,1125.666671,1123.135740,1124.800000 C1106.235655,1123.933329,1089.552489,1122.633342,1073.085740,1120.900000 C1047.085610,1120.900000,1023.685844,1117.000039,1002.885740,1109.200000 C982.085636,1101.399961,963.019160,1091.000065,945.685740,1078.000000 C937.885701,1099.666775,929.652450,1123.283206,920.985740,1148.850000 C912.319030,1174.416795,903.435785,1200.633199,894.335740,1227.500000 C885.235694,1254.366801,876.135785,1280.583206,867.035740,1306.150000 C857.935694,1331.716795,849.485779,1355.333225,841.685740,1377.000000 C835.619043,1396.066762,825.652476,1411.233277,811.785740,1422.500000 C797.919004,1433.766723,782.752489,1441.349981,766.285740,1445.250000 C749.818991,1449.150020,733.352489,1449.150020,716.885740,1445.250000 C700.418991,1441.349981,686.335798,1434.200052,674.635740,1423.800000 C662.935681,1413.399948,655.135759,1399.750085,651.235740,1382.850000 C647.335720,1365.949916,649.719030,1345.800117,658.385740,1322.400000 L982.085740,407.200000 C987.285766,388.133238,995.735681,372.750059,1007.435740,361.050000 C1019.135798,349.349942,1032.135668,341.116691,1046.435740,336.350000 C1060.735811,331.583310,1075.685662,329.416665,1091.285740,329.850000 C1106.885818,330.283336,1120.752346,333.099974,1132.885740,338.300000 C1145.019134,343.500026,1154.985701,350.216625,1162.785740,358.450000 C1170.585779,366.683375,1174.052411,375.566619,1173.185740,385.100000 C1187.919147,372.966606,1204.818978,365.166684,1223.885740,361.700000 C1242.952502,358.233316,1261.152320,356.500000,1278.485740,356.500000 C1303.619199,356.500000,1327.668958,361.699948,1350.635740,372.100000 C1373.602521,382.500052,1393.752320,396.366580,1411.085740,413.700000 C1428.419160,431.033420,1442.069023,451.616548,1452.035740,475.450000 C1462.002456,499.283453,1466.985740,524.199870,1466.985740,550.200000 C1466.985740,573.600117,1463.085779,596.133225,1455.285740,617.800000 C1437.085649,668.066918,1418.669166,719.416404,1400.035740,771.850000 C1381.402313,824.283596,1362.985831,875.199753,1344.785740,924.600000 C1343.052398,928.933355,1341.535746,932.833316,1340.235740,936.300000 C1338.935733,939.766684,1336.552424,944.966632,1333.085740,951.900000 C1378.152632,935.433251,1418.668893,910.083505,1454.635740,875.850000 C1490.602586,841.616496,1518.985636,797.633602,1539.785740,743.900000 ZM1022.385740,860.900000 C1013.719030,888.633472,1015.452346,909.649929,1027.585740,923.950000 C1039.719134,938.250072,1056.185636,945.400000,1076.985740,945.400000 C1094.319160,944.533329,1111.002326,938.683388,1127.035740,927.850000 C1143.069153,917.016613,1154.552372,901.633433,1161.485740,881.700000 C1170.152450,856.566541,1178.169036,834.033433,1185.535740,814.100000 C1192.902443,794.166567,1199.835707,774.666762,1206.335740,755.600000 C1212.835772,736.533238,1219.552372,717.033433,1226.485740,697.100000 C1233.419108,677.166567,1240.785701,654.200130,1248.585740,628.200000 C1257.252450,603.066541,1257.685779,582.050085,1249.885740,565.150000 C1242.085701,548.249916,1228.219173,538.933342,1208.285740,537.200000 C1190.085649,536.333329,1171.885831,541.966606,1153.685740,554.100000 C1135.485649,566.233394,1120.752463,583.566554,1109.485740,606.100000 L1112.085740,604.800000 ZM1674.985740,906.400000 C1673.252398,910.733355,1671.952411,914.849981,1671.085740,918.750000 C1670.219069,922.650020,1669.785740,925.899987,1669.785740,928.500000 C1669.785740,938.033381,1673.252372,946.266632,1680.185740,953.200000 C1687.119108,960.133368,1697.085675,963.600000,1710.085740,963.600000 C1740.419225,963.600000,1773.135564,946.266840,1808.235740,911.600000 C1843.335915,876.933160,1875.618926,820.167061,1905.085740,741.300000 C1916.352463,711.833186,1932.385636,692.333381,1953.185740,682.800000 C1973.985844,673.266619,1993.918978,671.099974,2012.985740,676.300000 C2032.052502,681.500026,2047.219017,692.766580,2058.485740,710.100000 C2069.752463,727.433420,2071.485779,747.799883,2063.685740,771.200000 C2041.152294,838.800338,2014.935889,894.916444,1985.035740,939.550000 C1955.135590,984.183557,1923.935902,1019.716535,1891.435740,1046.150000 C1858.935577,1072.583466,1825.785909,1091.216613,1791.985740,1102.050000 C1758.185571,1112.883388,1725.685896,1118.300000,1694.485740,1118.300000 C1665.885597,1118.300000,1638.585870,1114.183375,1612.585740,1105.950000 C1586.585610,1097.716626,1563.835837,1085.800078,1544.335740,1070.200000 C1524.835642,1054.599922,1509.452463,1035.316782,1498.185740,1012.350000 C1486.919017,989.383219,1481.285740,962.733485,1481.285740,932.400000 C1481.285740,906.399870,1486.485688,878.233485,1496.885740,847.900000 L1751.685740,108.200000 C1759.485779,84.799883,1770.535668,66.383401,1784.835740,52.950000 C1799.135811,39.516599,1814.518991,30.416691,1830.985740,25.650000 C1847.452489,20.883310,1863.918991,20.233316,1880.385740,23.700000 C1896.852489,27.166684,1910.719017,34.316613,1921.985740,45.150000 C1933.252463,55.983388,1940.835720,70.066580,1944.735740,87.400000 C1948.635759,104.733420,1946.252450,125.099883,1937.585740,148.500000 ZM2209.285740,235.600000 C2179.818926,235.600000,2154.685844,225.200104,2133.885740,204.400000 C2113.085636,183.599896,2102.685740,158.033485,2102.685740,127.700000 C2102.685740,98.233186,2113.085636,73.316769,2133.885740,52.950000 C2154.685844,32.583232,2179.818926,22.400000,2209.285740,22.400000 C2238.752554,22.400000,2263.885636,32.583232,2284.685740,52.950000 C2305.485844,73.316769,2315.885740,98.233186,2315.885740,127.700000 C2315.885740,158.033485,2305.485844,183.599896,2284.685740,204.400000 C2263.885636,225.200104,2238.752554,235.600000,2209.285740,235.600000 ZM2033.785740,898.600000 C2031.185727,906.400039,2029.885740,913.333303,2029.885740,919.400000 C2029.885740,931.533394,2034.435694,941.933290,2043.535740,950.600000 C2052.635785,959.266710,2064.552333,963.600000,2079.285740,963.600000 C2092.285805,963.600000,2106.152333,959.916704,2120.885740,952.550000 C2135.619147,945.183297,2150.785662,932.833420,2166.385740,915.500000 C2181.985818,898.166580,2197.802326,875.416808,2213.835740,847.250000 C2229.869153,819.083193,2245.685662,783.766879,2261.285740,741.300000 C2269.952450,717.033212,2284.685636,700.566710,2305.485740,691.900000 C2326.285844,683.233290,2346.652307,680.849981,2366.585740,684.750000 C2386.519173,688.650020,2402.552346,698.183258,2414.685740,713.350000 C2426.819134,728.516743,2428.985779,747.799883,2421.185740,771.200000 C2398.652294,838.800338,2373.085883,894.699779,2344.485740,938.900000 C2315.885597,983.100221,2285.985896,1018.633199,2254.785740,1045.500000 C2223.585584,1072.366801,2191.735902,1091.216613,2159.235740,1102.050000 C2126.735577,1112.883388,2094.452567,1118.300000,2062.385740,1118.300000 C2032.052255,1118.300000,2003.669205,1113.966710,1977.235740,1105.300000 C1950.802274,1096.633290,1927.402508,1084.066749,1907.035740,1067.600000 C1886.668971,1051.133251,1870.635798,1030.983453,1858.935740,1007.150000 C1847.235681,983.316548,1841.385740,956.233485,1841.385740,925.900000 C1841.385740,914.633277,1842.902391,901.200078,1845.935740,885.600000 C1848.969088,869.999922,1852.652385,855.700065,1856.985740,842.700000 C1867.385792,812.366515,1878.435681,780.300169,1890.135740,746.500000 C1901.835798,712.699831,1913.752346,678.683505,1925.885740,644.450000 C1938.019134,610.216496,1949.935681,575.983505,1961.635740,541.750000 C1973.335798,507.516496,1984.385688,475.233485,1994.785740,444.900000 C2006.919134,409.366489,2025.335616,384.666736,2050.035740,370.800000 C2074.735863,356.933264,2098.352294,352.599974,2120.885740,357.800000 C2143.419186,363.000026,2161.185675,377.083219,2174.185740,400.050000 C2187.185805,423.016782,2188.052463,453.133147,2176.785740,490.400000 ZM2682.485740,751.700000 C2692.019121,726.566541,2707.185636,709.666710,2727.985740,701.000000 C2748.785844,692.333290,2768.718978,690.166645,2787.785740,694.500000 C2806.852502,698.833355,2822.235681,708.583258,2833.935740,723.750000 C2845.635798,738.916743,2847.585779,758.199883,2839.785740,781.600000 C2802.518887,889.067204,2750.952736,972.049708,2685.085740,1030.550000 C2619.218744,1089.050293,2544.252827,1118.300000,2460.185740,1118.300000 C2426.385571,1118.300000,2394.319225,1113.533381,2363.985740,1104.000000 C2333.652255,1094.466619,2307.002521,1080.600091,2284.035740,1062.400000 C2261.068958,1044.199909,2242.652476,1022.100130,2228.785740,996.100000 C2214.919004,970.099870,2207.985740,940.633498,2207.985740,907.700000 C2207.985740,880.833199,2213.185688,851.800156,2223.585740,820.600000 L2223.585740,821.900000 C2233.119121,794.166528,2242.219030,768.383452,2250.885740,744.550000 C2259.552450,720.716547,2268.002365,697.100117,2276.235740,673.700000 C2284.469114,650.299883,2292.919030,626.683453,2301.585740,602.850000 C2310.252450,579.016548,2319.352359,553.233472,2328.885740,525.500000 L2285.985740,525.500000 C2266.918978,525.500000,2252.185792,517.483414,2241.785740,501.450000 C2231.385688,485.416587,2227.269062,467.650098,2229.435740,448.150000 C2231.602417,428.649903,2240.485662,410.883414,2256.085740,394.850000 C2271.685818,378.816587,2295.952242,370.800000,2328.885740,370.800000 L2383.485740,370.800000 L2482.285740,96.500000 C2492.685792,63.566502,2509.802287,41.900052,2533.635740,31.500000 C2557.469192,21.099948,2580.652294,18.716639,2603.185740,24.350000 C2625.719186,29.983362,2644.135668,42.116574,2658.435740,60.750000 C2672.735811,79.383427,2675.985779,101.266541,2668.185740,126.400000 L2582.385740,370.800000 L2640.885740,370.800000 C2668.619212,370.800000,2688.119017,378.816587,2699.385740,394.850000 C2710.652463,410.883414,2714.769088,428.649903,2711.735740,448.150000 C2708.702391,467.650098,2698.519160,485.416587,2681.185740,501.450000 C2663.852320,517.483414,2640.452554,525.500000,2610.985740,525.500000 L2526.485740,525.500000 L2402.985740,871.300000 C2399.519056,879.100039,2397.785740,888.633277,2397.785740,899.900000 C2397.785740,917.233420,2404.502339,931.966606,2417.935740,944.100000 C2431.369140,956.233394,2449.785623,962.300000,2473.185740,962.300000 C2511.319264,962.300000,2549.235551,945.183505,2586.935740,910.950000 C2624.635928,876.716496,2656.485610,823.633693,2682.485740,751.700000 ZM3333.785740,750.400000 C3342.452450,726.133212,3356.752307,710.533368,3376.685740,703.600000 C3396.619173,696.666632,3416.335642,695.799974,3435.835740,701.000000 C3455.335837,706.200026,3471.152346,715.949928,3483.285740,730.250000 C3495.419134,744.550072,3498.452437,760.799909,3492.385740,779.000000 C3471.585636,838.800299,3445.369231,889.933121,3413.735740,932.400000 C3382.102248,974.866879,3344.402625,1009.966528,3300.635740,1037.700000 C3256.868854,1065.433472,3207.252684,1086.233264,3151.785740,1100.100000 C3096.318796,1113.966736,3034.352749,1122.633316,2965.885740,1126.100000 C2955.485688,1127.833342,2942.919147,1129.133329,2928.185740,1130.000000 C2913.452333,1130.866671,2900.885792,1131.300000,2890.485740,1131.300000 C2853.218887,1129.566658,2817.902573,1122.633394,2784.535740,1110.500000 C2751.168906,1098.366606,2721.919199,1082.116769,2696.785740,1061.750000 C2671.652281,1041.383232,2651.719147,1017.550137,2636.985740,990.250000 C2622.252333,962.949864,2614.885740,933.266827,2614.885740,901.200000 C2614.885740,880.399896,2617.485714,859.166775,2622.685740,837.500000 C2627.885766,815.833225,2635.902352,795.466762,2646.735740,776.400000 C2657.569127,757.333238,2671.218991,740.650072,2687.685740,726.350000 C2704.152489,712.049929,2723.218965,702.300026,2744.885740,697.100000 C2770.885870,647.699753,2797.318939,598.300247,2824.185740,548.900000 C2851.052541,499.499753,2877.052281,450.100247,2902.185740,400.700000 C2916.919147,379.033225,2932.085662,362.566723,2947.685740,351.300000 C2963.285818,340.033277,2978.452333,332.666684,2993.185740,329.200000 C3000.985779,327.466658,3009.002365,326.166671,3017.235740,325.300000 C3025.469114,324.433329,3034.352359,324.866658,3043.885740,326.600000 L3043.885740,325.300000 C3057.752476,327.900013,3070.752346,333.099961,3082.885740,340.900000 C3095.019134,348.700039,3104.985701,358.016612,3112.785740,368.850000 C3120.585779,379.683388,3126.219056,392.033264,3129.685740,405.900000 C3133.152424,419.766736,3134.019082,433.633264,3132.285740,447.500000 C3128.819056,465.700091,3121.669127,482.166593,3110.835740,496.900000 C3100.002352,511.633407,3085.919160,522.466632,3068.585740,529.400000 C3071.185753,549.333433,3078.119017,570.133225,3089.385740,591.800000 C3100.652463,613.466775,3112.785675,635.566554,3125.785740,658.100000 C3143.985831,688.433485,3161.318991,721.149825,3177.785740,756.250000 C3194.252489,791.350176,3202.485740,827.966476,3202.485740,866.100000 C3202.485740,874.766710,3202.052411,882.999961,3201.185740,890.800000 C3200.319069,898.600039,3199.019082,906.833290,3197.285740,915.500000 C3257.952710,879.966489,3303.452255,824.933706,3333.785740,750.400000 ZM2921.685740,715.300000 C2939.885831,733.500091,2950.285727,755.816535,2952.885740,782.250000 C2955.485753,808.683466,2951.369127,833.383219,2940.535740,856.350000 C2929.702352,879.316781,2912.585857,897.733264,2889.185740,911.600000 C2865.785623,925.466736,2837.619238,928.933368,2804.685740,922.000000 C2811.619108,939.333420,2823.968984,952.549955,2841.735740,961.650000 C2859.502495,970.750046,2879.652294,975.300000,2902.185740,975.300000 C2924.719186,974.433329,2944.435655,968.150059,2961.335740,956.450000 C2978.235824,944.749942,2990.152372,927.200117,2997.085740,903.800000 C3007.485792,867.399818,3005.535811,830.133524,2991.235740,792.000000 C2976.935668,753.866476,2957.652528,720.066814,2933.385740,690.600000 ZM3453.385740,905.100000 C3482.852554,905.100000,3507.985636,915.283232,3528.785740,935.650000 C3549.585844,956.016769,3559.985740,981.366515,3559.985740,1011.700000 C3559.985740,1041.166814,3549.585844,1066.299896,3528.785740,1087.100000 C3507.985636,1107.900104,3482.852554,1118.300000,3453.385740,1118.300000 C3423.052255,1118.300000,3397.702508,1107.900104,3377.335740,1087.100000 C3356.968971,1066.299896,3346.785740,1041.166814,3346.785740,1011.700000 C3346.785740,981.366515,3356.968971,956.016769,3377.335740,935.650000 C3397.702508,915.283232,3423.052255,905.100000,3453.385740,905.100000 ZM3903.185740,235.600000 C3873.718926,235.600000,3848.585844,225.200104,3827.785740,204.400000 C3806.985636,183.599896,3796.585740,158.033485,3796.585740,127.700000 C3796.585740,98.233186,3806.985636,73.316769,3827.785740,52.950000 C3848.585844,32.583232,3873.718926,22.400000,3903.185740,22.400000 C3932.652554,22.400000,3957.785636,32.583232,3978.585740,52.950000 C3999.385844,73.316769,4009.785740,98.233186,4009.785740,127.700000 C4009.785740,158.033485,3999.385844,183.599896,3978.585740,204.400000 C3957.785636,225.200104,3932.652554,235.600000,3903.185740,235.600000 ZM3727.685740,898.600000 C3725.085727,906.400039,3723.785740,913.333303,3723.785740,919.400000 C3723.785740,931.533394,3728.335694,941.933290,3737.435740,950.600000 C3746.535785,959.266710,3758.452333,963.600000,3773.185740,963.600000 C3786.185805,963.600000,3800.052333,959.916704,3814.785740,952.550000 C3829.519147,945.183297,3844.685662,932.833420,3860.285740,915.500000 C3875.885818,898.166580,3891.702326,875.416808,3907.735740,847.250000 C3923.769153,819.083193,3939.585662,783.766879,3955.185740,741.300000 C3963.852450,717.033212,3978.585636,700.566710,3999.385740,691.900000 C4020.185844,683.233290,4040.552307,680.849981,4060.485740,684.750000 C4080.419173,688.650020,4096.452346,698.183258,4108.585740,713.350000 C4120.719134,728.516743,4122.885779,747.799883,4115.085740,771.200000 C4092.552294,838.800338,4066.985883,894.699779,4038.385740,938.900000 C4009.785597,983.100221,3979.885896,1018.633199,3948.685740,1045.500000 C3917.485584,1072.366801,3885.635902,1091.216613,3853.135740,1102.050000 C3820.635577,1112.883388,3788.352567,1118.300000,3756.285740,1118.300000 C3725.952255,1118.300000,3697.569205,1113.966710,3671.135740,1105.300000 C3644.702274,1096.633290,3621.302508,1084.066749,3600.935740,1067.600000 C3580.568971,1051.133251,3564.535798,1030.983453,3552.835740,1007.150000 C3541.135681,983.316548,3535.285740,956.233485,3535.285740,925.900000 C3535.285740,914.633277,3536.802391,901.200078,3539.835740,885.600000 C3542.869088,869.999922,3546.552385,855.700065,3550.885740,842.700000 C3561.285792,812.366515,3572.335681,780.300169,3584.035740,746.500000 C3595.735798,712.699831,3607.652346,678.683505,3619.785740,644.450000 C3631.919134,610.216496,3643.835681,575.983505,3655.535740,541.750000 C3667.235798,507.516496,3678.285688,475.233485,3688.685740,444.900000 C3700.819134,409.366489,3719.235616,384.666736,3743.935740,370.800000 C3768.635863,356.933264,3792.252294,352.599974,3814.785740,357.800000 C3837.319186,363.000026,3855.085675,377.083219,3868.085740,400.050000 C3881.085805,423.016782,3881.952463,453.133147,3870.685740,490.400000 ZM4462.185740,846.600000 C4464.785753,847.466671,4467.819056,847.900000,4471.285740,847.900000 C4474.752424,847.900000,4477.785727,847.900000,4480.385740,847.900000 C4519.385935,847.900000,4552.968932,835.333459,4581.135740,810.200000 C4609.302547,785.066541,4630.752333,752.133537,4645.485740,711.400000 C4654.152450,682.799857,4668.885636,663.300052,4689.685740,652.900000 C4710.485844,642.499948,4730.635642,639.683310,4750.135740,644.450000 C4769.635837,649.216691,4785.019017,661.349903,4796.285740,680.850000 C4807.552463,700.350097,4807.985792,725.699844,4797.585740,756.900000 C4786.319017,790.700169,4770.719173,822.549851,4750.785740,852.450000 C4730.852307,882.350150,4707.019212,908.349890,4679.285740,930.450000 C4651.552268,952.550111,4620.785909,970.099935,4586.985740,983.100000 C4553.185571,996.100065,4517.219264,1002.600000,4479.085740,1002.600000 C4452.218939,1002.600000,4426.219199,999.133368,4401.085740,992.200000 C4373.352268,1039.000234,4337.819290,1072.799896,4294.485740,1093.600000 C4251.152190,1114.400104,4203.919329,1124.800000,4152.785740,1124.800000 C4119.852242,1124.800000,4088.219225,1119.816717,4057.885740,1109.850000 C4027.552255,1099.883284,4000.685857,1085.583427,3977.285740,1066.950000 C3953.885623,1048.316574,3935.252476,1025.350137,3921.385740,998.050000 C3907.519004,970.749864,3900.585740,940.200169,3900.585740,906.400000 C3900.585740,891.666593,3902.102391,876.500078,3905.135740,860.900000 C3908.169088,845.299922,3912.285714,829.266749,3917.485740,812.800000 L4022.785740,522.900000 C4033.185792,494.299857,4047.918978,468.516782,4066.985740,445.550000 C4086.052502,422.583219,4107.935616,403.300078,4132.635740,387.700000 C4157.335863,372.099922,4184.202261,360.183375,4213.235740,351.950000 C4242.269218,343.716625,4271.952255,339.600000,4302.285740,339.600000 C4336.952580,339.600000,4370.102248,344.799948,4401.735740,355.200000 C4433.369231,365.600052,4460.668958,380.549903,4483.635740,400.050000 C4506.602521,419.550098,4524.369010,442.949864,4536.935740,470.250000 C4549.502469,497.550137,4554.485753,527.666502,4551.885740,560.600000 C4551.019069,573.600065,4547.985766,590.499896,4542.785740,611.300000 C4537.585714,632.100104,4531.519108,653.116561,4524.585740,674.350000 C4517.652372,695.583440,4510.285779,715.516574,4502.485740,734.150000 C4494.685701,752.783427,4488.185766,765.999961,4482.985740,773.800000 C4474.319030,786.800065,4465.652450,796.333303,4456.985740,802.400000 C4459.585753,814.533394,4461.102404,825.149955,4461.535740,834.250000 C4461.969075,843.350046,4462.185740,847.466671,4462.185740,846.600000 ZM4341.285740,646.400000 C4345.619095,632.533264,4350.819043,616.283427,4356.885740,597.650000 C4362.952437,579.016574,4365.985740,563.633394,4365.985740,551.500000 C4365.985740,536.766593,4359.919134,523.550059,4347.785740,511.850000 C4335.652346,500.149942,4319.619173,494.300000,4299.685740,494.300000 C4279.752307,494.300000,4261.335824,500.149942,4244.435740,511.850000 C4227.535655,523.550059,4215.619108,540.233225,4208.685740,561.900000 C4180.085597,629.500338,4157.119160,686.483102,4139.785740,732.850000 C4122.452320,779.216899,4109.019121,817.133186,4099.485740,846.600000 C4096.885727,854.400039,4094.069088,865.016600,4091.035740,878.450000 C4088.002391,891.883401,4087.352398,905.533264,4089.085740,919.400000 C4090.819082,933.266736,4096.019030,945.183284,4104.685740,955.150000 C4113.352450,965.116717,4128.518965,970.100000,4150.185740,970.100000 C4169.252502,970.100000,4187.452320,963.816730,4204.785740,951.250000 C4222.119160,938.683271,4235.119030,921.133446,4243.785740,898.600000 C4243.785740,897.733329,4244.219069,896.866671,4245.085740,896.000000 C4232.952346,885.599948,4222.119121,873.900065,4212.585740,860.900000 C4203.052359,847.899935,4197.852411,830.133446,4196.985740,807.600000 C4196.985740,788.533238,4200.669036,770.550085,4208.035740,753.650000 C4215.402443,736.749916,4225.369010,722.450059,4237.935740,710.750000 C4250.502469,699.049942,4264.802326,690.383362,4280.835740,684.750000 C4296.869153,679.116639,4313.985649,677.166658,4332.185740,678.900000 C4333.052411,673.699974,4334.352398,668.500026,4336.085740,663.300000 C4337.819082,658.099974,4339.552398,652.466697,4341.285740,646.400000 Z" style="fill: rgba(25, 136, 231, 1.000000); stroke-width: 0.000000px; stroke: rgba(25, 136, 231, 1.000000); " fill="#169cec" stroke="#179cec" stroke-width="0.000000" />
</g></svg>