<?xml version="1.0" standalone="no"?>
<!DOCTYPE svg PUBLIC "-//W3C//DTD SVG 20010904//EN"
 "http://www.w3.org/TR/2001/REC-SVG-20010904/DTD/svg10.dtd">
<svg version="1.0" xmlns="http://www.w3.org/2000/svg"
 width="700.000000pt" height="700.000000pt" viewBox="0 0 700.000000 700.000000"
 preserveAspectRatio="xMidYMid meet">
<metadata>
Created by potrace 1.11, written by Peter Selinger 2001-2013
</metadata>
<g transform="translate(0.000000,700.000000) scale(0.100000,-0.100000)"
fill="#000000" stroke="none">
<path d="M4240 6719 c-74 -10 -159 -43 -220 -84 -51 -34 -1719 -1696 -1777
-1770 -33 -43 -75 -130 -88 -180 -14 -61 -16 -72 -16 -145 0 -209 120 -394
316 -490 177 -87 377 -72 540 40 22 16 427 415 900 889 899 899 910 912 950
1038 29 89 25 248 -7 333 -94 253 -340 404 -598 369z"/>
<path d="M3669 4352 c-122 -32 -159 -62 -545 -447 -198 -198 -375 -381 -393
-407 -17 -26 -44 -78 -58 -115 -23 -59 -26 -83 -26 -183 0 -100 4 -124 26
-183 33 -84 75 -147 145 -214 97 -94 202 -141 337 -150 175 -12 295 38 443
181 274 266 649 651 677 693 57 87 90 202 89 308 0 31 -17 132 -26 154 -33 82
-67 138 -120 196 -73 79 -120 113 -213 150 -89 36 -232 43 -336 17z"/>
<path d="M4240 2999 c-72 -10 -154 -41 -215 -81 -26 -17 -436 -420 -910 -895
-905 -905 -917 -918 -955 -1042 -23 -76 -25 -218 -5 -295 37 -141 159 -291
288 -354 172 -85 384 -75 534 25 49 32 1707 1680 1779 1769 126 154 146 403
46 584 -81 147 -249 270 -388 285 -96 10 -120 11 -174 4z"/>
</g>
</svg>
